<svg width="128" height="128" viewBox="0 0 128 128" fill="none" xmlns="http://www.w3.org/2000/svg">
<path d="M34.8333 75.6665C32.287 75.6703 29.7721 76.2297 27.4643 77.3057C25.1565 78.3818 23.1113 79.9485 21.4714 81.8965C19.8316 83.8445 18.6366 86.1269 17.9699 88.5844C17.3032 91.0419 17.1808 93.6153 17.6113 96.125C18.0417 98.6347 19.0147 101.02 20.4623 103.115C21.9099 105.21 23.7971 106.964 25.9924 108.254C28.1877 109.544 30.6381 110.34 33.1726 110.585C35.7071 110.83 38.2646 110.52 40.6666 109.675" stroke="#EE6629" stroke-width="10" stroke-linecap="round" stroke-linejoin="round"/>
<path d="M18.8735 85.0291C15.3826 83.3484 12.3651 80.825 10.0934 77.6865C7.82175 74.548 6.36731 70.8933 5.86141 67.0521C5.3555 63.2109 5.81404 59.3042 7.19565 55.6845C8.57726 52.0649 10.8385 48.8462 13.7751 46.3191M13.9501 45.8466C12.0371 42.9838 11.1986 39.5366 11.5831 36.115C11.9676 32.6934 13.5504 29.5183 16.0512 27.1516C18.552 24.7849 21.8095 23.3794 25.247 23.1839C28.6846 22.9884 32.0805 24.0154 34.8335 26.0832M36.2218 26.4624C35.2912 24.4852 34.8169 22.3241 34.8339 20.1388C34.8509 17.9536 35.3588 15.8002 36.32 13.8377C37.2812 11.8751 38.6712 10.1537 40.3872 8.80065C42.1032 7.44759 44.1014 6.49746 46.2339 6.02052C48.3665 5.54357 50.5791 5.552 52.708 6.04517C54.8369 6.53834 56.8277 7.50365 58.5334 8.86974C60.239 10.2358 61.6158 11.9678 62.5621 13.9376C63.5083 15.9074 63.9998 18.0646 64.0001 20.2499V110.667C64.0001 113.761 62.771 116.728 60.5831 118.916C58.3951 121.104 55.4277 122.333 52.3335 122.333C49.2393 122.333 46.2718 121.104 44.0839 118.916C41.896 116.728 40.6668 113.761 40.6668 110.667M64.0001 34.8332C64.0001 39.4745 65.8439 43.9257 69.1258 47.2076C72.4077 50.4895 76.8589 52.3332 81.5001 52.3332M93.1668 75.6666C95.7131 75.6704 98.228 76.2298 100.536 77.3058C102.844 78.3818 104.889 79.9485 106.529 81.8965C108.169 83.8445 109.363 86.127 110.03 88.5845C110.697 91.042 110.819 93.6154 110.389 96.125C109.958 98.6347 108.985 101.02 107.538 103.115C106.09 105.21 104.203 106.964 102.008 108.254C99.8124 109.544 97.362 110.34 94.8275 110.585C92.293 110.83 89.7355 110.52 87.3335 109.675" stroke="#EE6629" stroke-width="10" stroke-linecap="round" stroke-linejoin="round"/>
<path d="M109.127 85.0291C112.618 83.3484 115.635 80.825 117.907 77.6865C120.178 74.548 121.633 70.8933 122.139 67.0521C122.645 63.2109 122.186 59.3042 120.804 55.6845C119.423 52.0649 117.162 48.8462 114.225 46.3191M114.05 45.8466C115.963 42.9838 116.802 39.5366 116.417 36.115C116.033 32.6934 114.45 29.5183 111.949 27.1516C109.448 24.7849 106.191 23.3794 102.753 23.1839C99.3156 22.9884 95.9197 24.0154 93.1667 26.0832M64 20.2499C64.0004 18.0646 64.4918 15.9074 65.4381 13.9376C66.3843 11.9678 67.7611 10.2358 69.4668 8.86974C71.1724 7.50365 73.1633 6.53834 75.2922 6.04517C77.4211 5.552 79.6336 5.54357 81.7662 6.02052C83.8988 6.49746 85.8969 7.44759 87.6129 8.80065C89.3289 10.1537 90.7189 11.8751 91.6801 13.8377C92.6414 15.8002 93.1492 17.9536 93.1662 20.1388C93.1832 22.3241 92.7089 24.4852 91.7783 26.4624M87.3333 110.667C87.3333 113.761 86.1042 116.728 83.9162 118.916C81.7283 121.104 78.7609 122.333 75.6667 122.333C72.5725 122.333 69.605 121.104 67.4171 118.916C65.2292 116.728 64 113.761 64 110.667" stroke="#EE6629" stroke-width="10" stroke-linecap="round" stroke-linejoin="round"/>
</svg>
